<svg xmlns="http://www.w3.org/2000/svg" viewBox="0 0 1440 690" class="wave">
                                    <defs>
                                        <linearGradient y2="50%" x2="100%" y1="50%" x1="0%" id="gradient">
                                            <stop stop-color="#085CA6" offset="5%"></stop>
                                            <stop stop-color="#085CA6" offset="95%"></stop>
                                        </linearGradient>
                                    </defs>
                                    <path transform="rotate(-180 720 350)"
                                        class="transition-all duration-300 ease-in-out delay-150 path-0"
                                        fill-opacity="0.53" fill="url(#gradient)" stroke-width="0" stroke="none"
                                        d="M 0,700 C 0,700 0,233 0,233 C 59.66609412572997,227.46856750257643 119.33218825145994,221.93713500515287 180,209 C 240.66781174854006,196.06286499484713 302.33734111989014,175.720027481965 378,194 C 453.66265888010986,212.279972518035 543.3184472689796,269.1827550669872 620,288 C 696.6815527310204,306.8172449330128 760.388869804191,287.54895225008585 837,272 C 913.611130195809,256.45104774991415 1003.1260735142562,244.62143593266921 1061,257 C 1118.8739264857438,269.3785640673308 1145.106836138784,305.96530401923735 1203,306 C 1260.893163861216,306.03469598076265 1350.4465819306079,269.5173479903813 1440,233 C 1440,233 1440,700 1440,700 Z">
                                    </path>
                                    <defs>
                                        <linearGradient y2="50%" x2="100%" y1="50%" x1="0%" id="gradient">
                                            <stop stop-color="#8ed1fc" offset="5%"></stop>
                                            <stop stop-color="#0693e3" offset="95%"></stop>
                                        </linearGradient>
                                    </defs>
                                    <path transform="rotate(-180 720 350)"
                                        class="transition-all duration-300 ease-in-out delay-150 path-1"
                                        fill-opacity="1" fill="url(#gradient)" stroke-width="0" stroke="none"
                                        d="M 0,700 C 0,700 0,466 0,466 C 85.70594297492269,460.8663689453796 171.41188594984538,455.7327378907591 229,478 C 286.5881140501546,500.2672621092409 316.0583991755411,549.935417382343 387,551 C 457.9416008244589,552.064582617657 570.3545173479904,504.52559257986945 655,479 C 739.6454826520096,453.47440742013055 796.5235314324974,449.9622122981794 858,449 C 919.4764685675026,448.0377877018206 985.55135692202,449.62555822741325 1045,437 C 1104.44864307798,424.37444177258675 1157.271040879423,397.5355547921676 1222,400 C 1286.728959120577,402.4644452078324 1363.3644795602886,434.23222260391617 1440,466 C 1440,466 1440,700 1440,700 Z">
                                    </path>
                                </svg>